<svg width="25" height="24" viewBox="0 0 25 24" fill="none" xmlns="http://www.w3.org/2000/svg">
    <path fill-rule="evenodd" clip-rule="evenodd" d="M18.1377 12.7004C18.1103 9.96829 20.3655 8.65786 20.4661 8.59195C19.199 6.7387 17.2246 6.4844 16.5216 6.45576C14.843 6.2849 13.2441 7.44464 12.3922 7.44464C11.5424 7.44464 10.2264 6.48061 8.83425 6.50498C7.00238 6.5324 5.31441 7.5705 4.3717 9.21018C2.46966 12.5096 3.88538 17.3997 5.73867 20.0779C6.64495 21.3867 7.72547 22.8598 9.14292 22.8058C10.5094 22.7519 11.0253 21.9218 12.6769 21.9218C14.3285 21.9218 14.7926 22.8058 16.2379 22.778C17.7071 22.7514 18.6386 21.444 19.5376 20.1298C20.5776 18.6091 21.006 17.1369 21.0313 17.062C20.9995 17.0474 18.1672 15.9621 18.1377 12.7004ZM15.4218 4.68337C16.1736 3.77067 16.683 2.50223 16.5447 1.23975C15.4595 1.28381 14.1461 1.96111 13.3673 2.87296C12.6695 3.68207 12.0591 4.9702 12.2226 6.20995C13.4328 6.30375 14.6675 5.59439 15.4218 4.68337Z" fill="white"/>
</svg>
