<svg width="207" height="207" viewBox="0 0 207 207" fill="none" xmlns="http://www.w3.org/2000/svg">
    <path fill-rule="evenodd" clip-rule="evenodd" d="M74.2009 32.7664C77.8403 28.568 82.3405 25.2019 87.396 22.8966C92.4515 20.5914 97.9438 19.401 103.5 19.4063C115.204 19.4063 125.692 24.5813 132.799 32.7664C138.342 32.3706 143.906 33.1725 149.112 35.1176C154.318 37.0627 159.044 40.1055 162.969 44.0393C166.902 47.9642 169.943 52.689 171.888 57.8932C173.833 63.0974 174.636 68.6591 174.242 74.2009C178.439 77.8411 181.804 82.3417 184.107 87.3971C186.411 92.4525 187.6 97.9444 187.594 103.5C187.599 109.056 186.409 114.549 184.103 119.604C181.798 124.66 178.432 129.16 174.234 132.799C174.628 138.341 173.825 143.903 171.88 149.107C169.935 154.311 166.893 159.036 162.961 162.961C159.036 166.893 154.311 169.935 149.107 171.88C143.903 173.825 138.341 174.628 132.799 174.234C129.16 178.432 124.66 181.798 119.604 184.103C114.549 186.409 109.056 187.599 103.5 187.594C97.9438 187.599 92.4515 186.409 87.396 184.103C82.3405 181.798 77.8403 178.432 74.2009 174.234C68.6583 174.631 63.0952 173.83 57.8894 171.886C52.6835 169.943 47.957 166.902 44.0307 162.969C40.0974 159.044 37.0549 154.317 35.1098 149.111C33.1647 143.906 32.3625 138.342 32.7578 132.799C28.5609 129.159 25.1965 124.658 22.8927 119.603C20.589 114.548 19.3999 109.056 19.4063 103.5C19.4063 91.7959 24.5813 81.3079 32.7664 74.2009C32.3719 68.659 33.1744 63.0972 35.1195 57.8929C37.0646 52.6887 40.1067 47.9638 44.0393 44.0393C47.9639 40.1067 52.6887 37.0645 57.8929 35.1195C63.0972 33.1744 68.6591 32.3719 74.2009 32.7664ZM134.636 87.8543C135.154 87.1647 135.528 86.3787 135.738 85.5423C135.947 84.706 135.987 83.8362 135.855 82.9842C135.724 82.1321 135.423 81.315 134.971 80.5808C134.52 79.8466 133.925 79.2101 133.224 78.7088C132.523 78.2074 131.728 77.8514 130.887 77.6615C130.046 77.4716 129.176 77.4518 128.327 77.6031C127.478 77.7545 126.668 78.074 125.945 78.5428C125.221 79.0117 124.599 79.6204 124.114 80.3333L96.2033 119.405L82.1963 105.398C80.97 104.255 79.3481 103.633 77.6723 103.662C75.9964 103.692 74.3975 104.371 73.2123 105.556C72.0271 106.741 71.3482 108.34 71.3186 110.016C71.2891 111.692 71.9111 113.314 73.0538 114.54L92.46 133.946C93.1241 134.61 93.9246 135.121 94.8059 135.444C95.6873 135.767 96.6284 135.894 97.564 135.817C98.4995 135.74 99.4071 135.46 100.224 134.997C101.04 134.534 101.746 133.899 102.293 133.136L134.636 87.8543Z" fill="#1E90FF"/>
</svg>
