<svg width="22" height="22" viewBox="0 0 22 22" fill="none" xmlns="http://www.w3.org/2000/svg">
    <path d="M12.0058 3.28966C12.8965 2.95886 13.8442 3.61754 13.8442 4.56785L13.8436 7.16369C15.6028 7.74165 17.4755 7.95778 19.3476 7.7815C20.238 7.69748 20.9503 8.47366 20.826 9.33059L20.7927 9.49202L18.9416 16.4005C18.5771 17.7603 17.6642 18.9021 16.429 19.5582L16.1595 19.6913L15.2073 20.1267C12.6201 21.3102 9.57408 20.5611 7.82656 18.3502L7.63783 18.0985L7.35027 17.6954C5.93743 17.7107 4.52038 17.2409 3.36516 16.286L2.55823 15.6189C1.39572 14.6579 0.722656 13.2283 0.722656 11.72V4.56785C0.722656 3.61754 1.67021 2.9589 2.56113 3.28968C5.60758 4.42142 8.95931 4.42142 12.0058 3.28966ZM13.8438 8.73053L13.8442 11.72C13.8442 12.3238 13.7364 12.9151 13.5324 13.4687C14.582 13.929 15.3635 14.8458 15.6567 15.9592C15.7619 16.3588 15.5233 16.768 15.1236 16.8733C14.7331 16.9761 14.3334 16.7505 14.2172 16.3672L14.2095 16.3403C14.0211 15.6246 13.5006 15.0452 12.8063 14.7866C12.576 15.0917 12.3086 15.3709 12.0087 15.6188L11.2017 16.286C10.543 16.8305 9.79911 17.2173 9.01945 17.4464L8.85734 17.2312C10.0973 18.9748 12.3563 19.6388 14.3292 18.8738L14.5849 18.7659L15.5371 18.3304C16.4224 17.9255 17.0997 17.1779 17.4182 16.2658L17.4961 16.0132L19.298 9.28795L19.1669 9.29815C17.3603 9.42936 15.5582 9.23272 13.8438 8.73053ZM12.3478 4.75763L12.2205 4.80256C8.98852 5.92436 5.46914 5.91229 2.24348 4.76642L2.21913 4.75763V11.72C2.21913 12.7628 2.676 13.7521 3.46742 14.4283L3.51173 14.4655L4.31865 15.1326C6.03927 16.5549 8.52762 16.5549 10.2482 15.1327L11.0552 14.4655C11.8738 13.7888 12.3478 12.7821 12.3478 11.72V4.75763ZM10.2787 11.0892C10.6375 11.2942 10.7621 11.7513 10.557 12.1101C9.89057 13.2761 8.65115 14.0118 7.28346 14.0118C5.91579 14.0118 4.6764 13.2761 4.00982 12.1102C3.80472 11.7514 3.92928 11.2943 4.28803 11.0892C4.63823 10.889 5.08216 11.0029 5.29389 11.3422L5.30897 11.3674C5.71185 12.0721 6.45849 12.5153 7.28346 12.5153C8.10842 12.5153 8.85503 12.0721 9.25778 11.3675C9.46284 11.0087 9.91992 10.8841 10.2787 11.0892Z" fill="#807E81"/>
</svg>
