<svg width="207" height="64" viewBox="0 0 207 64" fill="none" xmlns="http://www.w3.org/2000/svg">
    <path d="M43.1091 7.65527C52.0336 11.8826 58.3746 21.0419 58.3746 31.8452C58.3746 46.4061 46.3971 58.3837 31.8362 58.3837C27.374 58.3837 23.1466 57.2094 19.6238 55.3306C21.0329 55.5654 22.6769 55.8003 24.086 55.8003C31.8362 55.8003 38.6469 52.7472 43.8137 47.5804C48.7456 42.6485 51.7987 35.6029 51.7987 28.0875C51.7987 20.3374 48.7456 13.5266 43.8137 8.35983C43.5789 8.12498 43.344 7.89013 43.1091 7.65527Z" fill="url(#paint0_linear_2_687)"/>
    <path d="M48.0413 36.3072C46.6322 40.0649 44.7534 43.3528 41.9352 45.9362C37.4729 50.3985 31.1319 53.2167 24.0863 53.2167C20.3286 53.2167 16.571 52.5121 13.283 50.8682C8.58593 46.4059 5.53283 40.0649 5.29797 33.0193C6.23739 34.4284 7.1768 35.6027 8.35107 36.7769C13.283 41.9437 20.3286 44.9968 28.0788 44.9968C35.5941 44.9968 42.6397 41.9437 47.5716 36.7769C47.8065 36.7769 47.8065 36.5421 48.0413 36.3072Z" fill="url(#paint1_linear_2_687)"/>
    <path d="M31.8364 5.30664C32.7759 5.30664 33.7153 5.30664 34.6547 5.30664C29.0182 6.48091 24.0863 9.0643 20.0938 13.0568C15.1618 17.9887 12.1087 25.0343 12.1087 32.5497C12.1087 34.1936 12.1087 35.6028 12.5784 37.2467C11.639 36.5422 10.9345 35.8376 9.99505 35.1331C8.11622 33.2542 6.7071 30.9057 5.29797 28.5572C6.94195 15.4053 18.2149 5.30664 31.8364 5.30664Z" fill="url(#paint2_linear_2_687)"/>
    <path d="M82.6843 44.8472L73.0369 24.5638C71.8507 22.0333 71.4158 21.2425 69.3202 21.2425H69.0039V19.7005H79.4817V21.2425C77.8606 21.4007 77.7024 22.1124 78.4537 23.6544L85.7684 38.9164L88.2989 33.7368L83.6333 23.9312C82.6053 21.7961 82.0913 21.2821 80.9446 21.2425V19.7005H98.2626V21.2425C96.7602 21.5588 96.2857 22.0333 95.2577 24.1289L92.3714 29.9806L96.5229 38.4024L101.979 24.5638C102.849 22.3891 102.454 21.2821 100.081 21.2425V19.7005H108.068V21.2425C106.17 21.3611 105.261 22.1915 104.233 24.801L96.2462 44.8472H93.6761L89.4455 36.1487L85.3334 44.8472H82.6843ZM91.1852 27.5292L93.4389 23.0613C94.0715 21.8356 93.9924 21.2425 92.2132 21.2425H90.0781C88.4965 21.2425 88.3384 21.7961 88.9315 22.9822L91.1852 27.5292ZM129.775 25.4336C129.38 22.745 128.866 21.8751 127.047 21.8751H118.388V30.7714H124.793C126.968 30.7714 127.759 30.0201 127.759 27.9246H129.34V35.7928H127.759C127.759 33.6577 127.245 32.946 124.2 32.946H118.388V40.063C118.388 41.7632 118.704 42.119 119.851 42.119H126.454C129.024 42.119 130.25 41.4073 131.001 38.0861H132.503L132.029 44.2937H108.226V42.7516H109.848C112.141 42.7516 112.932 41.8422 112.932 39.9048V24.1289C112.932 21.9938 112.22 21.2425 109.492 21.2425H109.096V19.7005H130.882L131.278 25.4336H129.775ZM143.772 33.8554V39.8653C143.772 41.8818 144.642 42.7516 146.895 42.7516H148.082V44.2937H134.243V42.7516H134.876C137.287 42.7516 138.315 42.1586 138.315 39.8653V24.2475C138.315 22.3496 137.801 21.2425 135.152 21.2425H134.322V19.7005C136.299 19.5819 137.801 19.5028 139.423 19.3842C141.637 19.226 144.484 19.1074 145.907 19.1074C151.719 19.1074 154.882 19.8587 156.859 21.8356C158.164 23.1404 158.757 24.6429 158.757 26.343C158.757 29.348 156.582 31.7203 152.905 32.7088C155.515 34.8834 156.899 38.007 159.706 40.8142C161.327 42.4353 162.434 42.9098 164.925 43.147V44.689C164.055 44.7286 163.66 44.7286 162.474 44.7286C157.571 44.7286 155.554 44.0169 153.696 42.1586C151.719 40.1816 149.426 36.03 146.895 33.8554H143.772ZM143.772 20.8076V32.1948H145.314C150.098 32.1948 152.866 30.7318 152.866 26.5012C152.866 22.3101 149.663 20.8076 145.828 20.8076H143.772ZM188.925 37.4139L186.039 44.2937H164.846V42.7516H165.518C168.049 42.7516 168.8 41.8422 168.8 39.9048V24.0893C168.8 21.7565 167.456 21.2425 165.676 21.2425H164.925V19.7005H178.329V21.2425H177.182C175.126 21.2425 174.256 22.1519 174.256 24.0102V40.3002C174.256 41.7632 174.691 42.119 176.233 42.119H181.255C183.904 42.119 184.695 40.8142 187.344 37.4139H188.925ZM189.123 21.2425V19.7005H201.696V21.2425H201.024C198.889 21.2425 198.019 22.1519 198.019 24.2079V39.8653C198.019 41.8027 198.691 42.7516 201.103 42.7516H201.696V44.2937H189.123V42.7516H189.676C191.772 42.7516 192.563 41.7632 192.563 40.0235V24.2079C192.563 22.1519 191.851 21.2425 189.637 21.2425H189.123Z" fill="url(#paint3_linear_2_687)"/>
    <defs>
        <linearGradient id="paint0_linear_2_687" x1="19.6238" y1="7.65527" x2="58.3746" y2="7.65527" gradientUnits="userSpaceOnUse">
            <stop stop-color="#FBB040"/>
            <stop offset="1" stop-color="#F9ED32"/>
        </linearGradient>
        <linearGradient id="paint1_linear_2_687" x1="5.29797" y1="33.0193" x2="48.0413" y2="33.0193" gradientUnits="userSpaceOnUse">
            <stop stop-color="#FBB040"/>
            <stop offset="1" stop-color="#F9ED32"/>
        </linearGradient>
        <linearGradient id="paint2_linear_2_687" x1="5.29797" y1="5.30664" x2="34.6547" y2="5.30664" gradientUnits="userSpaceOnUse">
            <stop stop-color="#FBB040"/>
            <stop offset="1" stop-color="#F9ED32"/>
        </linearGradient>
        <linearGradient id="paint3_linear_2_687" x1="69.0039" y1="19.1074" x2="201.696" y2="19.1074" gradientUnits="userSpaceOnUse">
            <stop stop-color="#FBB040"/>
            <stop offset="1" stop-color="#F9ED32"/>
        </linearGradient>
    </defs>
</svg>
