<svg width="25" height="24" viewBox="0 0 25 24" fill="none" xmlns="http://www.w3.org/2000/svg">
    <path d="M12.7499 5C14.3667 5 15.8512 5.55353 17.0363 6.47406L20.6734 3.00409C18.5587 1.13995 15.7906 0 12.7499 0C8.14233 0 4.14661 2.59991 2.13574 6.40985L6.18018 9.60278C7.15991 6.91937 9.72742 5 12.7499 5Z" fill="#F44336"/>
    <path d="M24.6461 13.5018C24.7086 13.0102 24.75 12.5087 24.75 12C24.75 11.1422 24.6563 10.3068 24.4852 9.5H12.75V14.5H19.2362C18.7115 15.8638 17.7772 17.0178 16.588 17.8195L20.6475 21.0243C22.7994 19.1354 24.272 16.4904 24.6461 13.5018Z" fill="#2196F3"/>
    <path d="M5.75 12.0001C5.75 11.1566 5.90686 10.3517 6.18024 9.60284L2.1358 6.40991C1.25433 8.08008 0.75 9.98022 0.75 12.0001C0.75 13.9973 1.24506 15.8764 2.10822 17.533L6.15778 14.336C5.89844 13.6045 5.75 12.8205 5.75 12.0001Z" fill="#FFC107"/>
    <path d="M12.7499 19C9.70441 19 7.12036 17.0515 6.15771 14.3359L2.10815 17.533C4.10919 21.3735 8.11975 24 12.7499 24C15.7777 24 18.5387 22.8752 20.6474 21.0243L16.588 17.8195C15.4911 18.5589 14.1783 19 12.7499 19Z" fill="#00B060"/>
    <path opacity="0.1" d="M12.7501 23.75C9.21838 23.75 6.04279 22.2928 3.79761 19.9713C5.99542 22.4378 9.18652 24 12.7501 24C16.2806 24 19.4453 22.4686 21.6382 20.0408C19.3997 22.3246 16.2482 23.75 12.7501 23.75Z" fill="black"/>
    <path opacity="0.1" d="M12.75 14.25V14.5H19.2362L19.3375 14.25H12.75Z" fill="black"/>
    <path d="M24.7444 12.147C24.7452 12.0977 24.75 12.0493 24.75 11.9999C24.75 11.986 24.7478 11.9725 24.7477 11.9585C24.7471 12.0215 24.7439 12.0837 24.7444 12.147Z" fill="#E6E6E6"/>
    <path opacity="0.2" d="M12.75 9.5V9.75H24.5356C24.5198 9.66748 24.5026 9.58191 24.4852 9.5H12.75Z" fill="#161616"/>
    <path d="M24.4852 9.5H12.75V14.5H19.2362C18.2275 17.1216 15.7272 19 12.75 19C8.88403 19 5.75 15.866 5.75 12C5.75 8.13397 8.88403 5 12.75 5C14.1519 5 15.4439 5.43066 16.5385 6.14069C16.7061 6.24957 16.8789 6.35181 17.0363 6.47406L20.6735 3.00409L20.5914 2.94098C18.4869 1.11707 15.7535 0 12.75 0C6.12256 0 0.75 5.37256 0.75 12C0.75 18.6274 6.12256 24 12.75 24C18.8677 24 23.9055 19.4188 24.6461 13.5018C24.7086 13.0102 24.75 12.5087 24.75 12C24.75 11.1422 24.6563 10.3068 24.4852 9.5Z" fill="url(#paint0_linear_253_79)"/>
    <path opacity="0.1" d="M16.5385 5.89075C15.4439 5.18073 14.1519 4.75006 12.75 4.75006C8.88403 4.75006 5.75 7.88403 5.75 11.7501C5.75 11.7922 5.75057 11.8252 5.7513 11.8672C5.81874 8.05957 8.92621 5.00006 12.75 5.00006C14.1519 5.00006 15.4439 5.43073 16.5385 6.14075C16.7061 6.24963 16.8789 6.35187 17.0363 6.47412L20.6735 3.00415L17.0363 6.22412C16.8789 6.10187 16.7061 5.99963 16.5385 5.89075Z" fill="black"/>
    <path opacity="0.2" d="M12.75 0.25C15.725 0.25 18.4329 1.34839 20.5293 3.1416L20.6735 3.00409L20.5634 2.90827C18.459 1.08436 15.7535 0 12.75 0C6.12256 0 0.75 5.37256 0.75 12C0.75 12.0422 0.755859 12.0829 0.756287 12.125C0.824036 5.55585 6.16473 0.25 12.75 0.25Z" fill="#161616"/>
    <defs>
        <linearGradient id="paint0_linear_253_79" x1="0.75" y1="12" x2="24.75" y2="12" gradientUnits="userSpaceOnUse">
            <stop stop-color="white" stop-opacity="0.2"/>
            <stop offset="1" stop-color="white" stop-opacity="0"/>
        </linearGradient>
    </defs>
</svg>
