<svg width="19" height="19" viewBox="0 0 19 19" fill="none" xmlns="http://www.w3.org/2000/svg">
    <circle cx="9.5" cy="9.5" r="9.5" fill="url(#paint0_linear_4_2810)"/>
    <g clip-path="url(#clip0_4_2810)">
        <path d="M9.5 15.0001C9.86467 15.0001 10.2144 14.8552 10.4723 14.5974C10.7301 14.3395 10.875 13.9898 10.875 13.6251H8.125C8.125 13.9898 8.26987 14.3395 8.52773 14.5974C8.78559 14.8552 9.13533 15.0001 9.5 15.0001ZM10.1841 4.75568C10.1937 4.66008 10.1831 4.56354 10.1531 4.47227C10.1231 4.381 10.0743 4.29704 10.0098 4.22579C9.94538 4.15454 9.86671 4.0976 9.7789 4.05862C9.69108 4.01965 9.59607 3.99951 9.5 3.99951C9.40393 3.99951 9.30892 4.01965 9.2211 4.05862C9.13329 4.0976 9.05462 4.15454 8.99017 4.22579C8.92571 4.29704 8.87691 4.381 8.8469 4.47227C8.81689 4.56354 8.80634 4.66008 8.81594 4.75568C8.03887 4.91373 7.3403 5.33549 6.83853 5.94952C6.33675 6.56355 6.0626 7.33213 6.0625 8.12511C6.0625 8.87999 5.71875 12.2501 4.6875 12.9376H14.3125C13.2812 12.2501 12.9375 8.87999 12.9375 8.12511C12.9375 6.46136 11.755 5.07261 10.1841 4.75568Z" fill="white"/>
    </g>
    <defs>
        <linearGradient id="paint0_linear_4_2810" x1="0" y1="0" x2="19" y2="0" gradientUnits="userSpaceOnUse">
            <stop stop-color="#FBB040"/>
            <stop offset="1" stop-color="#F9ED32"/>
        </linearGradient>
        <clipPath id="clip0_4_2810">
            <rect width="11" height="11" fill="white" transform="translate(4 4)"/>
        </clipPath>
    </defs>
</svg>
