<svg width="211" height="36" viewBox="0 0 211 36" fill="none" xmlns="http://www.w3.org/2000/svg">
    <path d="M148.147 5.95532L140.052 28.0823V28.0862L138.636 29.0452L136.664 23.5573L142.539 5.95532H148.147Z" fill="url(#paint0_linear_653_1001)"/>
    <path d="M118.723 23.5573L116.842 28.7664L115.114 27.6758L107.166 5.95532H112.879L118.723 23.5573Z" fill="url(#paint1_linear_653_1001)"/>
    <path d="M52.1998 12.5455V29.737H46.9365V9.2001L47.4889 7.80103L52.1998 12.5455Z" fill="url(#paint2_linear_653_1001)"/>
    <path d="M74.0172 5.95532V26.7207C73.9166 26.8756 73.7501 26.9569 73.5836 26.9569C73.4481 26.9569 73.3164 26.9065 73.2119 26.7981L68.7488 22.2615V5.95532H74.0159H74.0172Z" fill="url(#paint3_linear_653_1001)"/>
    <path d="M171.379 15.4055H155.715V19.9538H171.379V15.4055Z" fill="url(#paint4_linear_653_1001)"/>
    <path d="M205.066 11.4897V29.7383H210.5V11.4897H205.066ZM184.022 25.0532V5.95539H178.588V27.2564C178.588 28.627 179.7 29.737 181.069 29.737H200.838V25.0532H184.022ZM155.715 25.1887V10.5075H174.474V5.95539H152.337C151.221 5.95539 150.318 6.85885 150.318 7.97398V27.7171C150.318 28.8323 151.221 29.7357 152.337 29.7357H174.811V25.1875H155.717L155.715 25.1887ZM99.2183 5.95539V18.1185C99.2183 22.8759 96.4331 25.7295 91.3014 25.7295C86.1698 25.7295 83.3884 22.8759 83.3884 18.1185V5.95539H77.947V18.5251C77.947 25.6611 82.6734 30.4869 91.3014 30.4869C99.9295 30.4869 104.652 25.6598 104.652 18.5251V5.95539H99.2183ZM74.017 26.7207C74.017 28.387 72.667 29.737 71.0007 29.737H70.5167C69.7127 29.737 68.9421 29.4156 68.3755 28.8452L55.3683 15.736L52.201 12.5455L48.5511 8.8684C48.0516 8.36505 47.1985 8.54058 46.9377 9.2001C46.9377 7.40738 48.391 5.95539 50.1825 5.95539H51.3518C52.2217 5.95539 53.0555 6.30516 53.6646 6.92467L66.5996 20.0752L68.7498 22.2602L73.2129 26.7969C73.3175 26.9053 73.4491 26.9556 73.5846 26.9556C73.7511 26.9556 73.9176 26.8743 74.0183 26.7195L74.017 26.7207ZM140.052 28.0863C139.689 29.0775 138.746 29.7383 137.69 29.7383H135.696C134.626 29.7383 133.674 29.062 133.323 28.0514L127.657 11.7995L122.08 27.6397C121.637 28.8968 120.45 29.737 119.118 29.737H118.063C116.745 29.737 115.567 28.9136 115.114 27.6758C116.002 28.236 117.18 27.8307 117.537 26.8434L118.723 23.5561L120.092 19.7615L125.074 5.9541H130.345L132.79 12.7649L136.665 23.5561L138.059 27.4345C138.352 28.2502 139.336 28.5703 140.053 28.085L140.052 28.0863Z" fill="url(#paint5_linear_653_1001)"/>
    <path d="M28.9331 1.46238L19.674 8.32092L17.1288 6.48303C15.2909 5.15881 13.1433 4.49671 10.9827 4.49671C8.82215 4.49671 6.81131 5.11751 5.01471 6.363C2.34177 8.20863 0.694889 11.1888 0.52065 14.4038C0.503872 14.6025 0.5 14.7884 0.5 14.9833V30.2466C0.5 34.2205 4.98632 36.5372 8.22715 34.2321L17.8412 27.6265L20.0354 29.2115C21.8694 30.5318 24.0209 31.1978 26.1815 31.1978C28.342 31.1978 30.3529 30.5731 32.1495 29.3315C34.8185 27.482 36.4706 24.5057 36.6448 21.2856C36.6616 21.0907 36.6655 20.9009 36.6655 20.7061V5.44405C36.6655 1.47012 32.1753 -0.846606 28.9344 1.46238H28.9331ZM32.414 20.7035C32.414 21.0881 32.3766 21.4688 32.3108 21.838C32.2617 22.0858 32.2037 22.331 32.1288 22.5659C32.0539 22.8059 31.9636 23.0383 31.8642 23.2654C31.8152 23.3777 31.761 23.4887 31.7029 23.601C31.2434 24.4825 30.5684 25.2479 29.7243 25.8364C27.5508 27.3426 24.6624 27.3142 22.5186 25.7654L21.3221 24.9046L27.1159 20.7822C28.2581 19.9704 28.9409 18.6462 28.9448 17.2471C28.9486 15.848 28.2749 14.5199 27.1366 13.7042L24.8392 12.0445L21.0021 14.5199L24.6482 17.1529C24.6649 17.1697 24.6933 17.1813 24.6933 17.2355C24.6933 17.2897 24.6649 17.3052 24.6482 17.3181L5.89236 30.6699C5.41611 31.0132 4.75013 30.6699 4.75013 30.0827V14.9923C4.75013 13.9662 5.0031 12.9724 5.46257 12.0948C5.92204 11.2133 6.59706 10.444 7.43727 9.85938C9.61461 8.35319 12.5031 8.37771 14.6469 9.92521L15.8394 10.7899L10.0496 14.9123C8.90346 15.7241 8.22457 17.0445 8.2207 18.4474C8.21683 19.8426 8.89055 21.1707 10.025 21.9864L12.707 23.9237L16.308 21.283L12.5121 18.5429C12.4992 18.5261 12.4708 18.5094 12.4708 18.4564C12.4708 18.4074 12.4992 18.3906 12.5121 18.3738L23.1278 10.8158L31.2692 5.02201C31.7494 4.68256 32.4153 5.02201 32.4153 5.61442V20.7048L32.414 20.7035Z" fill="url(#paint6_linear_653_1001)"/>
    <path d="M36.6651 5.44405V20.7073C36.6651 20.9022 36.6612 21.092 36.6444 21.2868C36.4702 24.507 34.8194 27.4833 32.1491 29.3328C30.3525 30.5744 28.259 31.1991 26.1811 31.1991C24.1031 31.1991 21.869 30.5331 20.035 29.2128L17.8408 27.6278L21.3217 24.9046L22.5182 25.7654C24.662 27.3129 27.5504 27.3426 29.7239 25.8364C30.568 25.2492 31.243 24.4825 31.7025 23.601C31.7606 23.4887 31.8148 23.3777 31.8638 23.2654C31.9632 23.0383 32.0535 22.8059 32.1284 22.5659C32.2033 22.3297 32.2613 22.0858 32.3104 21.838C32.3762 21.4701 32.4136 21.0894 32.4136 20.7035V5.61313C32.4136 5.02071 31.7477 4.68127 31.2675 5.02071L23.1261 10.8145L12.5104 18.3725C12.4975 18.3893 12.4691 18.4061 12.4691 18.4551C12.4691 18.5094 12.4975 18.5261 12.5104 18.5416L16.3063 21.2817L12.7053 23.9224L10.0233 21.9851C8.88886 21.1694 8.21514 19.8413 8.21901 18.4461C8.22288 17.0432 8.90177 15.7228 10.0479 14.911L15.8377 10.7887L19.6749 8.31834L28.9327 1.46238C32.1736 -0.846606 36.6638 1.47012 36.6638 5.44405H36.6651Z" fill="url(#paint7_linear_653_1001)"/>
    <path d="M210.5 11.4897V5.95532H205.066L210.5 11.4897Z" fill="url(#paint8_linear_653_1001)"/>
    <defs>
        <linearGradient id="paint0_linear_653_1001" x1="133.954" y1="24.3627" x2="150.253" y2="8.06297" gradientUnits="userSpaceOnUse">
            <stop stop-color="#D37A10"/>
            <stop offset="0.06" stop-color="#D98916"/>
            <stop offset="0.2" stop-color="#E5A522"/>
            <stop offset="0.36" stop-color="#EEBA2B"/>
            <stop offset="0.53" stop-color="#F4CA31"/>
            <stop offset="0.72" stop-color="#F8D335"/>
            <stop offset="1" stop-color="#FAD637"/>
        </linearGradient>
        <linearGradient id="paint1_linear_653_1001" x1="105.15" y1="7.97004" x2="121.394" y2="24.2142" gradientUnits="userSpaceOnUse">
            <stop stop-color="#FAC63B"/>
            <stop offset="0.3" stop-color="#F8C339"/>
            <stop offset="0.51" stop-color="#F3BA34"/>
            <stop offset="0.69" stop-color="#ECAA2B"/>
            <stop offset="0.85" stop-color="#E0951F"/>
            <stop offset="1" stop-color="#D37A10"/>
        </linearGradient>
        <linearGradient id="paint2_linear_653_1001" x1="49.5682" y1="29.737" x2="49.5682" y2="7.80103" gradientUnits="userSpaceOnUse">
            <stop stop-color="#FBB23F"/>
            <stop offset="0.34" stop-color="#F8AF3C"/>
            <stop offset="0.57" stop-color="#F2A635"/>
            <stop offset="0.77" stop-color="#E79628"/>
            <stop offset="0.95" stop-color="#D88116"/>
            <stop offset="1" stop-color="#D37A10"/>
        </linearGradient>
        <linearGradient id="paint3_linear_653_1001" x1="67.3007" y1="23.4089" x2="76.5379" y2="7.41118" gradientUnits="userSpaceOnUse">
            <stop stop-color="#D37A10"/>
            <stop offset="0.11" stop-color="#DD8C1C"/>
            <stop offset="0.28" stop-color="#EAA12A"/>
            <stop offset="0.47" stop-color="#F3B135"/>
            <stop offset="0.68" stop-color="#F9BA3B"/>
            <stop offset="1" stop-color="#FBBD3D"/>
        </linearGradient>
        <linearGradient id="paint4_linear_653_1001" x1="155.715" y1="17.6797" x2="171.379" y2="17.6797" gradientUnits="userSpaceOnUse">
            <stop stop-color="#D38C10"/>
            <stop offset="0.02" stop-color="#D59112"/>
            <stop offset="0.17" stop-color="#E2AD1F"/>
            <stop offset="0.33" stop-color="#ECC229"/>
            <stop offset="0.51" stop-color="#F3D230"/>
            <stop offset="0.71" stop-color="#F7DB34"/>
            <stop offset="1" stop-color="#F9DE36"/>
        </linearGradient>
        <linearGradient id="paint5_linear_653_1001" x1="46.9365" y1="18.2218" x2="210.5" y2="18.2218" gradientUnits="userSpaceOnUse">
            <stop stop-color="#FBB23F"/>
            <stop offset="1" stop-color="#F9EB33"/>
        </linearGradient>
        <linearGradient id="paint6_linear_653_1001" x1="18.5821" y1="35.1485" x2="18.5821" y2="0.544721" gradientUnits="userSpaceOnUse">
            <stop stop-color="#FBB23F"/>
            <stop offset="1" stop-color="#F9EB33"/>
        </linearGradient>
        <linearGradient id="paint7_linear_653_1001" x1="34.0657" y1="-9.41656" x2="18.4513" y2="30.3163" gradientUnits="userSpaceOnUse">
            <stop stop-color="#FBB23F"/>
            <stop offset="0.24" stop-color="#F7AD3B"/>
            <stop offset="0.51" stop-color="#EE9F30"/>
            <stop offset="0.79" stop-color="#E0881F"/>
            <stop offset="1" stop-color="#D2730F"/>
        </linearGradient>
        <linearGradient id="paint8_linear_653_1001" x1="196.659" y1="-5.1185" x2="208.261" y2="6.4819" gradientUnits="userSpaceOnUse">
            <stop stop-color="#FBB23F"/>
            <stop offset="1" stop-color="#F9EB33"/>
        </linearGradient>
    </defs>
</svg>
