<svg width="34" height="31" viewBox="0 0 34 31" fill="none" xmlns="http://www.w3.org/2000/svg">
    <rect x="0.986664" y="0.227539" width="32.16" height="30.016" rx="8.75467" fill="#395185"/>
    <g clip-path="url(#clip0_50_712)">
        <path d="M26.5539 28.4565C27.2346 28.4565 27.7865 27.9046 27.7865 27.2239V7.35565C27.7865 6.67484 27.2346 6.12305 26.5539 6.12305H6.68579C6.00489 6.12305 5.45319 6.67484 5.45319 7.35565V27.2239C5.45319 27.9046 6.00489 28.4565 6.68579 28.4565H26.5539Z" fill="#395185"/>
        <path d="M18.448 29.4525V19.1623H21.9021L22.4192 15.1521H18.448V12.5916C18.448 11.4305 18.7705 10.6393 20.4355 10.6393L22.5591 10.6384V7.05164C22.1917 7.00275 20.9312 6.89355 19.4647 6.89355C16.4029 6.89355 14.3068 8.76243 14.3068 12.1946V15.1521H10.8439V19.1623H14.3068V29.4525H18.448Z" fill="white"/>
    </g>
    <defs>
        <clipPath id="clip0_50_712">
            <rect width="22.3333" height="22.3333" fill="white" transform="translate(5.45319 6.12305)"/>
        </clipPath>
    </defs>
</svg>
