<svg width="12" height="10" viewBox="0 0 12 10" fill="none" xmlns="http://www.w3.org/2000/svg">
    <path fill-rule="evenodd" clip-rule="evenodd" d="M6.11998 1.57962L8.66839 5.99352L9.59065 7.59099C9.6788 7.74363 9.6788 7.91839 9.59065 8.07096C9.50249 8.22361 9.35119 8.31092 9.17495 8.31092H3.06501C2.88876 8.31092 2.73746 8.22354 2.64938 8.07096C2.56129 7.91832 2.56129 7.74363 2.64938 7.59099L3.5717 5.99352L6.11998 1.57962Z" fill="black"/>
    <path fill-rule="evenodd" clip-rule="evenodd" d="M1.10248 3.55934L6.91216 8.31091H2.54219C2.31464 8.31091 2.12295 8.15713 2.07363 7.93497L1.10248 3.55934Z" fill="black"/>
    <path d="M7.09135 1.14219C7.08689 0.593816 6.63873 0.152886 6.09036 0.157344C5.54199 0.161803 5.10106 0.609961 5.10551 1.15833C5.10997 1.70671 5.55813 2.14764 6.1065 2.14318C6.65488 2.13872 7.09581 1.69056 7.09135 1.14219Z" fill="black"/>
    <path fill-rule="evenodd" clip-rule="evenodd" d="M11.0529 3.55934L5.2431 8.31091H9.61306C9.84069 8.31091 10.0323 8.15713 10.0816 7.93497L11.0529 3.55934Z" fill="black"/>
    <path d="M12.0013 3.30827C11.9968 2.75989 11.5486 2.31896 11.0003 2.32342C10.4519 2.32788 10.011 2.77604 10.0154 3.32441C10.0199 3.87278 10.468 4.31372 11.0164 4.30926C11.5648 4.3048 12.0057 3.85664 12.0013 3.30827Z" fill="black"/>
    <path d="M1.98466 3.29516C1.9802 2.74679 1.53204 2.30586 0.98367 2.31031C0.435296 2.31477 -0.00563385 2.76293 -0.00117553 3.3113C0.00328279 3.85968 0.451441 4.30061 0.999815 4.29615C1.54819 4.29169 1.98912 3.84353 1.98466 3.29516Z" fill="black"/>
    <path fill-rule="evenodd" clip-rule="evenodd" d="M2.38699 8.89627H9.75763C9.8898 8.89627 9.99758 9.00406 9.99758 9.13622V9.60146C9.99758 9.73362 9.8898 9.84141 9.75763 9.84141H2.38699C2.25482 9.84141 2.14703 9.73362 2.14703 9.60146V9.13622C2.14703 9.00406 2.25482 8.89627 2.38699 8.89627Z" fill="black"/>
</svg>
