<svg width="22" height="23" viewBox="0 0 22 23" fill="none" xmlns="http://www.w3.org/2000/svg">
    <path d="M0.293215 3.7207H21.7332V22.4807L17.4452 18.7287H0.293215V3.7207ZM2.43721 16.8527H17.4452L19.5892 18.7287V5.5967H2.43721V16.8527Z" fill="white"/>
    <path d="M12.7998 10.8677C12.7998 9.88505 11.9958 9.08105 11.0132 9.08105C10.0305 9.08105 9.22649 9.88505 9.22649 10.8677C9.22649 11.8504 10.0305 12.6544 11.0132 12.6544C11.9958 12.6544 12.7998 11.8504 12.7998 10.8677ZM18.1598 10.8677C18.1598 9.88505 17.3558 9.08105 16.3732 9.08105C15.3905 9.08105 14.5865 9.88505 14.5865 10.8677C14.5865 11.8504 15.3905 12.6544 16.3732 12.6544C17.3558 12.6544 18.1598 11.8504 18.1598 10.8677ZM7.43982 10.8677C7.43982 9.88505 6.63582 9.08105 5.65315 9.08105C4.67049 9.08105 3.86649 9.88505 3.86649 10.8677C3.86649 11.8504 4.67049 12.6544 5.65315 12.6544C6.63582 12.6544 7.43982 11.8504 7.43982 10.8677Z" fill="white"/>
</svg>
