<svg width="24" height="24" viewBox="0 0 24 24" fill="none" xmlns="http://www.w3.org/2000/svg">
    <path d="M19 19C19 19.5523 18.5523 20 18 20C17.4477 20 17 19.5523 17 19V17H15C14.4477 17 14 16.5523 14 16C14 15.4477 14.4477 15 15 15H17V13C17 12.4477 17.4477 12 18 12C18.5523 12 19 12.4477 19 13V15H21C21.5523 15 22 15.4477 22 16C22 16.5523 21.5523 17 21 17H19V19ZM12 16C12 16.5523 11.5523 17 11 17H3C2.44772 17 2 16.5523 2 16C2 15.4477 2.44772 15 3 15H11C11.5523 15 12 15.4477 12 16ZM15 12C15 12.5523 14.5523 13 14 13H3C2.44772 13 2 12.5523 2 12C2 11.4477 2.44772 11 3 11H14C14.5523 11 15 11.4477 15 12ZM15 8C15 8.55228 14.5523 9 14 9H3C2.44772 9 2 8.55228 2 8C2 7.44772 2.44772 7 3 7H14C14.5523 7 15 7.44772 15 8Z" fill="white"/>
</svg>
