<svg width="24" height="24" viewBox="0 0 24 24" fill="none" xmlns="http://www.w3.org/2000/svg">
    <g clip-path="url(#clip0_22_453)">
        <path d="M12.5303 2.04688C17.7293 2.06319 21.961 6.31575 21.9531 11.5146C21.945 16.7286 17.7158 20.9531 12.5 20.9531C10.0635 20.9531 7.84208 20.0305 6.16602 18.5166C5.87126 18.2503 5.85568 17.7908 6.13867 17.5078L6.40137 17.2451C6.66195 16.985 7.08153 16.9723 7.35645 17.2197C8.71841 18.4455 10.5207 19.1914 12.5 19.1914C16.732 19.1914 20.1914 15.765 20.1914 11.5C20.1914 7.26796 16.765 3.80859 12.5 3.80859C9.67062 3.80859 7.1972 5.33568 5.86133 7.61328H9.08594C9.46993 7.61328 9.78125 7.9246 9.78125 8.30859V8.67969C9.78125 9.06368 9.46993 9.375 9.08594 9.375H3.74219C3.35819 9.375 3.04688 9.06368 3.04688 8.67969V3.33594C3.04688 2.95195 3.3582 2.64062 3.74219 2.64062H4.11328C4.49727 2.64062 4.80859 2.95195 4.80859 3.33594V6.00391C6.52845 3.60102 9.34674 2.03693 12.5303 2.04688ZM12.6484 5.60938C13.0324 5.60938 13.3437 5.9207 13.3438 6.30469V11.6641L15.9014 13.5244C16.2119 13.7503 16.2805 14.1855 16.0547 14.4961L15.8809 14.7363C15.655 15.0467 15.2197 15.1153 14.9092 14.8896L11.6562 12.5234V6.30469C11.6563 5.9207 11.9676 5.60938 12.3516 5.60938H12.6484Z" fill="white"/>
    </g>
    <defs>
        <clipPath id="clip0_22_453">
            <rect width="24" height="24" fill="white"/>
        </clipPath>
    </defs>
</svg>
