<svg width="33" height="31" viewBox="0 0 33 31" fill="none" xmlns="http://www.w3.org/2000/svg">
    <rect x="0.799988" y="0.227539" width="32.16" height="30.016" rx="7.86133" fill="#2CB742"/>
    <g clip-path="url(#clip0_50_705)">
        <g filter="url(#filter0_f_50_705)">
            <path d="M5.50946 26.8815L7.10573 21.0572C6.12424 19.3529 5.60111 17.4169 5.60651 15.4377C5.60651 9.23574 10.6543 4.19336 16.8563 4.19336C19.8655 4.19336 22.6914 5.36365 24.8109 7.48844C26.9357 9.61324 28.106 12.4392 28.1006 15.4431C28.1006 21.645 23.0527 26.6874 16.8509 26.6874H16.8455C14.9633 26.6874 13.1135 26.2129 11.4687 25.3176L5.50946 26.8815ZM11.7491 23.279L12.0888 23.484C13.5234 24.3361 15.1682 24.7836 16.8455 24.789H16.8509C22.0012 24.789 26.1968 20.5987 26.1968 15.4431C26.1968 12.9461 25.2261 10.6002 23.4626 8.83125C21.6991 7.06237 19.3478 6.09167 16.8509 6.09167C11.6951 6.09167 7.49943 10.282 7.49943 15.4376C7.49943 17.2012 7.99017 18.9215 8.92858 20.41L9.14967 20.7659L8.20596 24.212L11.7491 23.279Z" fill="black" fill-opacity="0.24"/>
        </g>
        <path d="M6.01938 26.2808L7.54261 20.7257C6.60334 19.0963 6.10924 17.2485 6.10992 15.3678C6.10992 9.45587 10.9247 4.64648 16.8311 4.64648C19.7019 4.64648 22.3916 5.76495 24.4155 7.78878C26.4393 9.81271 27.5525 12.5077 27.5525 15.3731C27.5525 21.2849 22.7378 26.0943 16.8312 26.0943H16.8259C15.031 26.0943 13.2681 25.6416 11.7022 24.7895L6.01938 26.2809V26.2808Z" fill="url(#paint0_linear_50_705)"/>
        <path d="M5.63028 26.6692L7.20673 20.9172C6.23743 19.2342 5.72072 17.3221 5.72612 15.3675C5.72612 9.24255 10.7113 4.2627 16.8363 4.2627C19.8081 4.2627 22.5989 5.41838 24.6921 7.51684C26.7905 9.6153 27.9463 12.4062 27.941 15.3728C27.941 21.4977 22.9558 26.4775 16.8308 26.4775H16.8256C14.9704 26.4768 13.1449 26.0117 11.5155 25.1247L5.63028 26.6693V26.6692ZM11.7924 23.1115L12.128 23.3138C13.5447 24.1554 15.1691 24.5975 16.8256 24.6028H16.8309C21.9172 24.6028 26.0609 20.4645 26.0609 15.3728C26.0609 12.9069 25.1022 10.59 23.3606 8.84308C21.619 7.09616 19.2968 6.13747 16.8309 6.13747C11.7392 6.13747 7.59559 10.2758 7.59559 15.3675C7.59559 17.1091 8.08019 18.8081 9.00697 20.278L9.22536 20.6295L8.29328 24.0328L11.7924 23.1115Z" fill="white"/>
        <path d="M14.0564 10.7181C13.8486 10.2547 13.6303 10.244 13.4333 10.2387C13.2735 10.2334 13.0871 10.2334 12.9006 10.2334C12.7143 10.2334 12.416 10.3026 12.1603 10.5795C11.9046 10.8566 11.1909 11.5276 11.1909 12.8965C11.1909 14.2599 12.187 15.5807 12.3254 15.7671C12.4639 15.9536 14.2481 18.8455 17.0656 19.9587C19.409 20.8855 19.8884 20.699 20.3943 20.6511C20.9056 20.6032 22.0348 19.98 22.2691 19.3302C22.4981 18.6805 22.4981 18.1265 22.4289 18.0094C22.3596 17.8922 22.1733 17.823 21.8963 17.6845C21.6193 17.546 20.2559 16.8749 20.0003 16.7791C19.7446 16.6832 19.5582 16.6406 19.3771 16.9175C19.1906 17.1945 18.6581 17.8176 18.4983 18.0041C18.3385 18.1905 18.1734 18.2118 17.8964 18.0733C17.6195 17.9349 16.7247 17.6418 15.6649 16.6939C14.8393 15.9589 14.2801 15.0481 14.1203 14.7712C13.9605 14.4942 14.1043 14.345 14.2428 14.2066C14.3653 14.0841 14.5197 13.8817 14.6583 13.7219C14.7967 13.5622 14.8446 13.445 14.9352 13.2585C15.0257 13.0722 14.9831 12.9124 14.9139 12.7739C14.8446 12.6354 14.3014 11.2666 14.0564 10.7181Z" fill="white"/>
    </g>
    <defs>
        <filter id="filter0_f_50_705" x="4.95116" y="3.63506" width="23.7078" height="23.8051" filterUnits="userSpaceOnUse" color-interpolation-filters="sRGB">
            <feFlood flood-opacity="0" result="BackgroundImageFix"/>
            <feBlend mode="normal" in="SourceGraphic" in2="BackgroundImageFix" result="shape"/>
            <feGaussianBlur stdDeviation="0.27915" result="effect1_foregroundBlur_50_705"/>
        </filter>
        <linearGradient id="paint0_linear_50_705" x1="16.7855" y1="26.2794" x2="16.7855" y2="4.64519" gradientUnits="userSpaceOnUse">
            <stop stop-color="#20B038"/>
            <stop offset="1" stop-color="#60D66A"/>
        </linearGradient>
        <clipPath id="clip0_50_705">
            <rect width="23.8208" height="23.9138" fill="white" transform="translate(4.92313 3.52637)"/>
        </clipPath>
    </defs>
</svg>
