<svg width="51" height="42" viewBox="0 0 51 42" fill="none" xmlns="http://www.w3.org/2000/svg">
    <rect width="50.5233" height="41.177" rx="3.36" fill="white"/>
    <path d="M44.5232 9.98412C44.5232 6.7077 40.8172 4.83744 38.222 6.80094L35.7675 8.66028V8.66574L25.2616 16.6184L14.7557 8.66028L12.3067 6.80598C9.70608 4.84248 6 6.71316 6 9.98916V13.5226V32.5238C6 33.9896 7.17558 35.1766 8.62794 35.1766H14.7557V20.1519L25.2616 28.1046L35.7675 20.1519V20.1464L35.7797 20.1372L35.7675 20.1519V35.1766H41.8953C43.3472 35.1766 44.5232 33.9896 44.5232 32.5238V13.523L44.5073 13.5293L44.5232 13.5176V9.98412Z" fill="#B5332A"/>
    <path d="M8.62794 35.177H14.7557V20.1523L6 13.5234V32.5247C6 33.99 7.17558 35.177 8.62794 35.177Z" fill="#4E85EB"/>
    <path d="M35.7675 35.177H41.8953C43.3473 35.177 44.5233 33.99 44.5233 32.5242V13.5234L35.7675 20.1523V35.177Z" fill="#58A45C"/>
    <path d="M35.7675 8.66028V20.1464L44.5233 13.5176V9.98412C44.5233 6.7077 40.8172 4.83744 38.222 6.80094L35.7675 8.66028Z" fill="#F2BC42"/>
    <path d="M14.7557 20.1528V8.66113L25.2616 16.6193L35.7675 8.66659V20.1528L25.2616 28.1055L14.7557 20.1528Z" fill="#D85040"/>
    <path d="M6 9.99014V13.5236L14.7557 20.1525V8.66084L12.3067 6.80654C9.70608 4.84346 6 6.71372 6 9.99014Z" fill="#B5332A"/>
</svg>
