<svg width="33" height="33" viewBox="0 0 33 33" fill="none" xmlns="http://www.w3.org/2000/svg">
    <g clip-path="url(#clip0_50_642)">
        <path d="M12.4525 26.3792L3.26149 17.2397C3.20849 17.187 3.16642 17.1243 3.13772 17.0553C3.10901 16.9863 3.09424 16.9123 3.09424 16.8375C3.09424 16.7628 3.10901 16.6888 3.13772 16.6197C3.16642 16.5507 3.20849 16.4881 3.26149 16.4353L5.5818 14.1125C5.80352 13.8907 6.16188 13.8907 6.3836 14.1125L12.4345 20.1272C12.6562 20.3489 13.0171 20.3464 13.2388 20.1246L26.609 6.62558C26.8307 6.40128 27.1916 6.40128 27.4159 6.623L29.7388 8.94589C29.9606 9.16761 29.9606 9.52597 29.7414 9.74769L15.175 24.4456L15.1776 24.4482L13.2569 26.3792C13.0352 26.6009 12.6742 26.6009 12.4525 26.3792Z" fill="#E0E0E0" stroke="#E0E0E0" stroke-width="1.54688" stroke-miterlimit="10"/>
    </g>
    <defs>
        <clipPath id="clip0_50_642">
            <rect width="33" height="33" fill="white"/>
        </clipPath>
    </defs>
</svg>
