<svg width="24" height="24" viewBox="0 0 24 24" fill="none" xmlns="http://www.w3.org/2000/svg">
    <path d="M17 3C17 3.55228 16.5523 4 16 4H6C4.89543 4 4 4.89543 4 6V18C4 19.1046 4.89543 20 6 20H16C16.5523 20 17 20.4477 17 21C17 21.5523 16.5523 22 16 22H4C2.89543 22 2 21.1046 2 20V4C2 2.89543 2.89543 2 4 2H16C16.5523 2 17 2.44772 17 3Z" fill="#F84550"/>
    <path d="M21.2929 11.2929C21.6834 11.6834 21.6834 12.3166 21.2929 12.7071L17.75 16.25C17.3595 16.6404 16.7265 16.6404 16.336 16.25C15.9455 15.8595 15.9455 15.2264 16.336 14.836L18.172 13H9C8.44772 13 8 12.5523 8 12C8 11.4477 8.44771 11 9 11H18.172L16.336 9.16397C15.9455 8.7735 15.9455 8.14043 16.336 7.74997C16.7265 7.3595 17.3595 7.3595 17.75 7.74997L21.2929 11.2929Z" fill="#F84550"/>
</svg>
