<svg width="10" height="15" viewBox="0 0 10 15" fill="none" xmlns="http://www.w3.org/2000/svg">
    <path d="M0 3.05045C0 2.15779 -4.96705e-08 1.71146 0.181667 1.37034C0.341453 1.07042 0.596411 0.826572 0.91 0.673749C1.26667 0.5 1.73333 0.5 2.66667 0.5H7.33333C8.26667 0.5 8.73333 0.5 9.09 0.673749C9.40359 0.826572 9.65855 1.07042 9.81833 1.37034C10 1.71146 10 2.15779 10 3.05045V13.6547C10 14.0421 10 14.2358 9.91583 14.3418C9.87946 14.3879 9.83305 14.4259 9.77981 14.4531C9.72657 14.4804 9.66778 14.4962 9.6075 14.4996C9.46833 14.5076 9.3 14.4 8.96333 14.1856L5 11.6582L1.03667 14.1848C0.7 14.4 0.531666 14.5076 0.391666 14.4996C0.33153 14.4961 0.272897 14.4802 0.21981 14.453C0.166724 14.4257 0.120446 14.3878 0.0841665 14.3418C-1.42803e-07 14.2358 0 14.0421 0 13.6547V3.05045Z" fill="#424242"/>
</svg>
