<svg width="23" height="22" viewBox="0 0 23 22" fill="none" xmlns="http://www.w3.org/2000/svg">
    <path d="M2.39844 5.50864C2.39844 4.502 3.16037 3.66166 4.15703 3.55931L4.19928 3.55543L19.8906 2.27994C20.3189 2.24513 20.6944 2.56411 20.7292 2.9924C20.7632 3.41096 20.4593 3.77903 20.0457 3.82803L20.0167 3.83093L4.32527 5.10642C4.12363 5.12279 3.96661 5.28562 3.95525 5.48542L3.95435 7.23446C4.0825 7.208 4.21524 7.1941 4.35122 7.1941H18.779C19.8575 7.1941 20.7318 8.06841 20.7318 9.14688V17.7721C20.7318 18.8506 19.8575 19.7248 18.779 19.7248H4.35122C3.27275 19.7248 2.39844 18.8506 2.39844 17.7721V5.50864ZM18.779 8.75021H4.35122C4.13216 8.75021 3.95454 8.92782 3.95454 9.14688V17.7721C3.95454 17.9911 4.13211 18.1687 4.35122 18.1687H18.779C18.9981 18.1687 19.1756 17.9912 19.1756 17.7721V9.14688C19.1756 8.92777 18.998 8.75021 18.779 8.75021Z" fill="#807E81"/>
    <path fill-rule="evenodd" clip-rule="evenodd" d="M20.6318 2.99895C20.6015 2.6257 20.2743 2.34772 19.9011 2.37806L4.21077 3.65345L4.16905 3.65729C3.22357 3.75465 2.50078 4.55199 2.50078 5.50708V17.7706C2.50078 18.7938 3.33031 19.6232 4.35356 19.6232H18.7814C19.8046 19.6232 20.6341 18.7938 20.6341 17.7706V9.14533C20.6341 8.12208 19.8046 7.29255 18.7814 7.29255H4.35356C4.22441 7.29255 4.09845 7.30575 3.97691 7.33084L3.85663 7.35567L3.8576 5.47818C3.87177 5.22883 4.06783 5.02563 4.31952 5.0052L20.0091 3.72987L20.0191 3.82937L20.011 3.7297L20.0363 3.72717L20.0481 3.82643L20.0382 3.72697C20.3981 3.68385 20.6615 3.36339 20.6318 2.99895ZM19.8849 2.17871C20.3682 2.13943 20.7919 2.4994 20.8312 2.98274C20.8696 3.45512 20.5267 3.87047 20.0599 3.92578L20.058 3.92598L20.0272 3.92906L4.33572 5.20454C4.18501 5.21677 4.06734 5.33786 4.05759 5.48693L4.05676 7.11386C4.15371 7.09981 4.25281 7.09255 4.35356 7.09255H18.7814C19.9151 7.09255 20.8341 8.01163 20.8341 9.14533V17.7706C20.8341 18.9043 19.9151 19.8232 18.7814 19.8232H4.35356C3.21987 19.8232 2.30078 18.9043 2.30078 17.7706V5.50708C2.30078 4.44907 3.10158 3.56585 4.14915 3.45828L4.15022 3.45817L4.19352 3.4542L19.8849 2.17871ZM3.85689 9.14533C3.85689 8.87104 4.07927 8.64865 4.35356 8.64865H18.7814C19.0556 8.64865 19.2779 8.87101 19.2779 9.14533V17.7706C19.2779 18.0448 19.0557 18.2671 18.7814 18.2671H4.35356C4.07925 18.2671 3.85689 18.0448 3.85689 17.7706V9.14533ZM4.35356 8.84865C4.18973 8.84865 4.05689 8.9815 4.05689 9.14533V17.7706C4.05689 17.9343 4.18965 18.0671 4.35356 18.0671H18.7814C18.9452 18.0671 19.0779 17.9344 19.0779 17.7706V9.14533C19.0779 8.98142 18.9451 8.84865 18.7814 8.84865H4.35356Z" fill="#807E81"/>
</svg>
