<svg width="23" height="22" viewBox="0 0 23 22" fill="none" xmlns="http://www.w3.org/2000/svg">
    <path fill-rule="evenodd" clip-rule="evenodd" d="M4.99609 7.66633C4.53586 7.66633 4.16276 8.03943 4.16276 8.49966V17.6663C4.16276 18.1266 4.53586 18.4997 4.99609 18.4997H18.3294C18.7897 18.4997 19.1628 18.1266 19.1628 17.6663V8.49966C19.1628 8.03943 18.7897 7.66633 18.3294 7.66633H4.99609ZM2.49609 8.49966C2.49609 7.11895 3.61538 5.99966 4.99609 5.99966H18.3294C19.7101 5.99966 20.8294 7.11895 20.8294 8.49966V17.6663C20.8294 19.047 19.7101 20.1663 18.3294 20.1663H4.99609C3.61538 20.1663 2.49609 19.047 2.49609 17.6663V8.49966Z" fill="#807E81"/>
    <path fill-rule="evenodd" clip-rule="evenodd" d="M6.90777 2.07611C7.23321 1.75067 7.76085 1.75067 8.08629 2.07611L11.6637 5.65352L15.2411 2.07611C15.5665 1.75067 16.0942 1.75067 16.4196 2.07611C16.7451 2.40155 16.7451 2.92918 16.4196 3.25462L12.253 7.42129C11.9275 7.74672 11.3999 7.74672 11.0744 7.42129L6.90777 3.25462C6.58234 2.92918 6.58234 2.40155 6.90777 2.07611Z" fill="#807E81"/>
    <path d="M9.67318 16.1669C9.53151 16.1669 9.38151 16.1336 9.25651 16.0503C8.99818 15.9003 8.83984 15.6253 8.83984 15.3336V10.8253C8.83984 10.5253 8.99818 10.2503 9.25651 10.1086C9.51484 9.95859 9.83151 9.95859 10.0898 10.1086L14.0565 12.3669C14.3148 12.5169 14.4815 12.7919 14.4815 13.0919C14.4815 13.3919 14.3232 13.6669 14.0565 13.8169L10.0898 16.0753C9.95651 16.1253 9.81484 16.1669 9.67318 16.1669ZM9.97318 11.3086V14.8419L13.0732 13.0753L9.97318 11.3086Z" fill="#807E81"/>
</svg>
