<svg width="23" height="22" viewBox="0 0 23 22" fill="none" xmlns="http://www.w3.org/2000/svg">
    <g clip-path="url(#clip0_237_689)">
        <path d="M11.2884 16.166C10.7441 16.166 5.96373 16.1569 4.59402 15.785C3.58714 15.5129 2.77982 14.7146 2.49862 13.7168C2.23556 12.2564 2.10857 10.8504 2.11764 9.46252C2.11764 8.10187 2.23556 6.70494 2.48048 5.3443C2.75261 4.24671 3.55085 3.42125 4.58494 3.13098C5.96373 2.75907 10.7441 2.75 11.2884 2.75C11.8236 2.75 16.604 2.75907 17.9556 3.0947C19.0169 3.39404 19.8151 4.2195 20.0782 5.25359C20.0872 5.27173 20.0872 5.28987 20.0872 5.31708C20.3321 6.69587 20.4591 8.0928 20.4501 9.48066C20.4591 10.8413 20.3321 12.2201 20.0872 13.5717C19.8151 14.6693 19.0169 15.4947 17.9828 15.785C16.613 16.1569 11.8326 16.166 11.2884 16.166ZM11.2884 4.56419C9.33813 4.56419 5.91838 4.64583 5.06571 4.87261C4.67565 4.98146 4.35817 5.30801 4.24932 5.71621C4.04069 6.92265 3.93183 8.20165 3.94091 9.47159C3.93183 10.7597 4.04069 12.0477 4.26746 13.3177C4.35817 13.6261 4.67565 13.9345 5.07478 14.0434C5.92745 14.2701 9.33813 14.3608 11.2884 14.3608C13.2386 14.3608 16.6584 14.2792 17.5111 14.0434C17.9011 13.9345 18.2186 13.6079 18.3275 13.1998C18.5361 12.0115 18.654 10.7415 18.6449 9.48066C18.654 8.20165 18.5452 6.92265 18.3184 5.67085C18.2095 5.27173 17.9011 4.96332 17.502 4.84539C16.6675 4.63676 13.2477 4.56419 11.2884 4.56419Z" fill="#807E81"/>
        <path d="M9.60302 12.8381C9.44881 12.8381 9.28553 12.8019 9.14947 12.7112C8.86827 12.5479 8.69592 12.2485 8.69592 11.931V7.02366C8.69592 6.6971 8.86827 6.39776 9.14947 6.24355C9.43067 6.08027 9.77537 6.08027 10.0566 6.24355L14.3743 8.70178C14.6555 8.86506 14.837 9.1644 14.837 9.49096C14.837 9.81751 14.6646 10.1169 14.3743 10.2801L10.0566 12.7384C9.91143 12.7928 9.75722 12.8381 9.60302 12.8381ZM9.92957 7.54977V11.3959L13.304 9.47282L9.92957 7.54977ZM16.8235 19.079H5.93835C5.43944 19.079 5.03125 18.6708 5.03125 18.1719C5.03125 17.673 5.43944 17.2648 5.93835 17.2648H16.8235C17.3224 17.2648 17.7306 17.673 17.7306 18.1719C17.7306 18.6708 17.3315 19.079 16.8235 19.079Z" fill="#807E81"/>
    </g>
    <defs>
        <clipPath id="clip0_237_689">
            <rect width="22" height="22" fill="white" transform="translate(0.382812)"/>
        </clipPath>
    </defs>
</svg>
